ISO-10303-21;
HEADER;
/* Generated by software containing ST-Developer
 * from STEP Tools, Inc. (www.steptools.com) 
 */
/* OPTION: using custom renumber hook */

FILE_DESCRIPTION(
/* description */ ('STEP AP214',
'CAx-IF Rec.Pracs.---User Defined Attributes---1.5---2016-08-15'),
/* implementation_level */ '2;1');

FILE_NAME(
/* name */ '6a9d80d74c9563d904257175',
/* time_stamp */ '2026-09-06T15:03:51Z',
/* author */ (''),
/* organization */ (''),
/* preprocessor_version */ 'ST-DEVELOPER v20',
/* originating_system */ 'ONSHAPE BY PTC INC, 1.220',
/* authorisation */ '  ');

FILE_SCHEMA (('AUTOMOTIVE_DESIGN {1 0 10303 214 3 1 1}'));
ENDSEC;

DATA;
#10=PROPERTY_DEFINITION_REPRESENTATION(#14,#12);
#11=PROPERTY_DEFINITION_REPRESENTATION(#15,#13);
#12=REPRESENTATION('',(#16),#1461);
#13=REPRESENTATION('',(#17),#1461);
#14=PROPERTY_DEFINITION('pmi validation property','',#1466);
#15=PROPERTY_DEFINITION('pmi validation property','',#1466);
#16=VALUE_REPRESENTATION_ITEM('number of annotations',COUNT_MEASURE(0.));
#17=VALUE_REPRESENTATION_ITEM('number of views',COUNT_MEASURE(0.));
#18=SHAPE_REPRESENTATION_RELATIONSHIP('','',#899,#19);
#19=ADVANCED_BREP_SHAPE_REPRESENTATION('',(#897),#1461);
#20=CIRCLE('',#906,0.005);
#21=CIRCLE('',#907,0.005);
#22=CIRCLE('',#913,0.01);
#23=CIRCLE('',#914,0.01);
#24=CIRCLE('',#917,0.045);
#25=CIRCLE('',#918,0.045);
#26=CIRCLE('',#921,0.045);
#27=CIRCLE('',#922,0.045);
#28=CIRCLE('',#925,0.00400000000000005);
#29=CIRCLE('',#926,0.00400000000000005);
#30=CIRCLE('',#929,0.004);
#31=CIRCLE('',#930,0.004);
#32=CIRCLE('',#935,0.004);
#33=CIRCLE('',#936,0.004);
#34=CIRCLE('',#939,0.00400000000000014);
#35=CIRCLE('',#940,0.00400000000000014);
#36=CIRCLE('',#943,0.045);
#37=CIRCLE('',#944,0.045);
#38=CIRCLE('',#947,0.005);
#39=CIRCLE('',#948,0.005);
#40=CIRCLE('',#952,0.00400000000000005);
#41=CIRCLE('',#953,0.00400000000000005);
#42=CYLINDRICAL_SURFACE('',#905,0.005);
#43=CYLINDRICAL_SURFACE('',#912,0.01);
#44=CYLINDRICAL_SURFACE('',#916,0.045);
#45=CYLINDRICAL_SURFACE('',#920,0.045);
#46=CYLINDRICAL_SURFACE('',#924,0.00400000000000005);
#47=CYLINDRICAL_SURFACE('',#928,0.004);
#48=CYLINDRICAL_SURFACE('',#934,0.004);
#49=CYLINDRICAL_SURFACE('',#938,0.00400000000000014);
#50=CYLINDRICAL_SURFACE('',#942,0.045);
#51=CYLINDRICAL_SURFACE('',#946,0.005);
#52=CYLINDRICAL_SURFACE('',#951,0.00400000000000005);
#53=ORIENTED_EDGE('',*,*,#305,.F.);
#54=ORIENTED_EDGE('',*,*,#306,.F.);
#55=ORIENTED_EDGE('',*,*,#307,.T.);
#56=ORIENTED_EDGE('',*,*,#308,.T.);
#57=ORIENTED_EDGE('',*,*,#309,.F.);
#58=ORIENTED_EDGE('',*,*,#310,.F.);
#59=ORIENTED_EDGE('',*,*,#311,.T.);
#60=ORIENTED_EDGE('',*,*,#306,.T.);
#61=ORIENTED_EDGE('',*,*,#312,.F.);
#62=ORIENTED_EDGE('',*,*,#313,.F.);
#63=ORIENTED_EDGE('',*,*,#314,.T.);
#64=ORIENTED_EDGE('',*,*,#310,.T.);
#65=ORIENTED_EDGE('',*,*,#315,.T.);
#66=ORIENTED_EDGE('',*,*,#316,.F.);
#67=ORIENTED_EDGE('',*,*,#317,.F.);
#68=ORIENTED_EDGE('',*,*,#313,.T.);
#69=ORIENTED_EDGE('',*,*,#318,.F.);
#70=ORIENTED_EDGE('',*,*,#319,.F.);
#71=ORIENTED_EDGE('',*,*,#320,.T.);
#72=ORIENTED_EDGE('',*,*,#316,.T.);
#73=ORIENTED_EDGE('',*,*,#321,.T.);
#74=ORIENTED_EDGE('',*,*,#322,.F.);
#75=ORIENTED_EDGE('',*,*,#323,.F.);
#76=ORIENTED_EDGE('',*,*,#319,.T.);
#77=ORIENTED_EDGE('',*,*,#324,.T.);
#78=ORIENTED_EDGE('',*,*,#325,.F.);
#79=ORIENTED_EDGE('',*,*,#326,.F.);
#80=ORIENTED_EDGE('',*,*,#322,.T.);
#81=ORIENTED_EDGE('',*,*,#327,.F.);
#82=ORIENTED_EDGE('',*,*,#328,.F.);
#83=ORIENTED_EDGE('',*,*,#329,.T.);
#84=ORIENTED_EDGE('',*,*,#325,.T.);
#85=ORIENTED_EDGE('',*,*,#330,.T.);
#86=ORIENTED_EDGE('',*,*,#331,.F.);
#87=ORIENTED_EDGE('',*,*,#332,.F.);
#88=ORIENTED_EDGE('',*,*,#328,.T.);
#89=ORIENTED_EDGE('',*,*,#333,.T.);
#90=ORIENTED_EDGE('',*,*,#334,.F.);
#91=ORIENTED_EDGE('',*,*,#335,.F.);
#92=ORIENTED_EDGE('',*,*,#331,.T.);
#93=ORIENTED_EDGE('',*,*,#336,.F.);
#94=ORIENTED_EDGE('',*,*,#337,.F.);
#95=ORIENTED_EDGE('',*,*,#338,.T.);
#96=ORIENTED_EDGE('',*,*,#334,.T.);
#97=ORIENTED_EDGE('',*,*,#339,.F.);
#98=ORIENTED_EDGE('',*,*,#340,.F.);
#99=ORIENTED_EDGE('',*,*,#341,.T.);
#100=ORIENTED_EDGE('',*,*,#337,.T.);
#101=ORIENTED_EDGE('',*,*,#342,.F.);
#102=ORIENTED_EDGE('',*,*,#343,.F.);
#103=ORIENTED_EDGE('',*,*,#344,.T.);
#104=ORIENTED_EDGE('',*,*,#340,.T.);
#105=ORIENTED_EDGE('',*,*,#345,.F.);
#106=ORIENTED_EDGE('',*,*,#346,.F.);
#107=ORIENTED_EDGE('',*,*,#347,.T.);
#108=ORIENTED_EDGE('',*,*,#343,.T.);
#109=ORIENTED_EDGE('',*,*,#348,.T.);
#110=ORIENTED_EDGE('',*,*,#349,.F.);
#111=ORIENTED_EDGE('',*,*,#350,.F.);
#112=ORIENTED_EDGE('',*,*,#346,.T.);
#113=ORIENTED_EDGE('',*,*,#351,.T.);
#114=ORIENTED_EDGE('',*,*,#352,.F.);
#115=ORIENTED_EDGE('',*,*,#353,.F.);
#116=ORIENTED_EDGE('',*,*,#349,.T.);
#117=ORIENTED_EDGE('',*,*,#354,.T.);
#118=ORIENTED_EDGE('',*,*,#355,.F.);
#119=ORIENTED_EDGE('',*,*,#356,.F.);
#120=ORIENTED_EDGE('',*,*,#352,.T.);
#121=ORIENTED_EDGE('',*,*,#357,.T.);
#122=ORIENTED_EDGE('',*,*,#358,.F.);
#123=ORIENTED_EDGE('',*,*,#359,.F.);
#124=ORIENTED_EDGE('',*,*,#355,.T.);
#125=ORIENTED_EDGE('',*,*,#360,.T.);
#126=ORIENTED_EDGE('',*,*,#361,.F.);
#127=ORIENTED_EDGE('',*,*,#362,.F.);
#128=ORIENTED_EDGE('',*,*,#358,.T.);
#129=ORIENTED_EDGE('',*,*,#363,.T.);
#130=ORIENTED_EDGE('',*,*,#364,.F.);
#131=ORIENTED_EDGE('',*,*,#365,.F.);
#132=ORIENTED_EDGE('',*,*,#361,.T.);
#133=ORIENTED_EDGE('',*,*,#366,.F.);
#134=ORIENTED_EDGE('',*,*,#367,.F.);
#135=ORIENTED_EDGE('',*,*,#368,.T.);
#136=ORIENTED_EDGE('',*,*,#364,.T.);
#137=ORIENTED_EDGE('',*,*,#369,.T.);
#138=ORIENTED_EDGE('',*,*,#370,.F.);
#139=ORIENTED_EDGE('',*,*,#371,.F.);
#140=ORIENTED_EDGE('',*,*,#367,.T.);
#141=ORIENTED_EDGE('',*,*,#372,.F.);
#142=ORIENTED_EDGE('',*,*,#373,.F.);
#143=ORIENTED_EDGE('',*,*,#374,.T.);
#144=ORIENTED_EDGE('',*,*,#370,.T.);
#145=ORIENTED_EDGE('',*,*,#375,.T.);
#146=ORIENTED_EDGE('',*,*,#376,.F.);
#147=ORIENTED_EDGE('',*,*,#377,.F.);
#148=ORIENTED_EDGE('',*,*,#373,.T.);
#149=ORIENTED_EDGE('',*,*,#378,.F.);
#150=ORIENTED_EDGE('',*,*,#379,.F.);
#151=ORIENTED_EDGE('',*,*,#380,.T.);
#152=ORIENTED_EDGE('',*,*,#376,.T.);
#153=ORIENTED_EDGE('',*,*,#381,.F.);
#154=ORIENTED_EDGE('',*,*,#382,.F.);
#155=ORIENTED_EDGE('',*,*,#383,.T.);
#156=ORIENTED_EDGE('',*,*,#379,.T.);
#157=ORIENTED_EDGE('',*,*,#384,.F.);
#158=ORIENTED_EDGE('',*,*,#385,.F.);
#159=ORIENTED_EDGE('',*,*,#386,.T.);
#160=ORIENTED_EDGE('',*,*,#382,.T.);
#161=ORIENTED_EDGE('',*,*,#387,.T.);
#162=ORIENTED_EDGE('',*,*,#388,.F.);
#163=ORIENTED_EDGE('',*,*,#389,.F.);
#164=ORIENTED_EDGE('',*,*,#385,.T.);
#165=ORIENTED_EDGE('',*,*,#390,.T.);
#166=ORIENTED_EDGE('',*,*,#391,.F.);
#167=ORIENTED_EDGE('',*,*,#392,.F.);
#168=ORIENTED_EDGE('',*,*,#388,.T.);
#169=ORIENTED_EDGE('',*,*,#393,.T.);
#170=ORIENTED_EDGE('',*,*,#394,.F.);
#171=ORIENTED_EDGE('',*,*,#395,.F.);
#172=ORIENTED_EDGE('',*,*,#391,.T.);
#173=ORIENTED_EDGE('',*,*,#396,.T.);
#174=ORIENTED_EDGE('',*,*,#397,.F.);
#175=ORIENTED_EDGE('',*,*,#398,.F.);
#176=ORIENTED_EDGE('',*,*,#394,.T.);
#177=ORIENTED_EDGE('',*,*,#399,.F.);
#178=ORIENTED_EDGE('',*,*,#400,.F.);
#179=ORIENTED_EDGE('',*,*,#401,.T.);
#180=ORIENTED_EDGE('',*,*,#397,.T.);
#181=ORIENTED_EDGE('',*,*,#402,.F.);
#182=ORIENTED_EDGE('',*,*,#403,.F.);
#183=ORIENTED_EDGE('',*,*,#404,.T.);
#184=ORIENTED_EDGE('',*,*,#400,.T.);
#185=ORIENTED_EDGE('',*,*,#405,.F.);
#186=ORIENTED_EDGE('',*,*,#406,.F.);
#187=ORIENTED_EDGE('',*,*,#407,.T.);
#188=ORIENTED_EDGE('',*,*,#403,.T.);
#189=ORIENTED_EDGE('',*,*,#408,.F.);
#190=ORIENTED_EDGE('',*,*,#409,.F.);
#191=ORIENTED_EDGE('',*,*,#410,.T.);
#192=ORIENTED_EDGE('',*,*,#406,.T.);
#193=ORIENTED_EDGE('',*,*,#411,.F.);
#194=ORIENTED_EDGE('',*,*,#412,.F.);
#195=ORIENTED_EDGE('',*,*,#413,.T.);
#196=ORIENTED_EDGE('',*,*,#409,.T.);
#197=ORIENTED_EDGE('',*,*,#414,.F.);
#198=ORIENTED_EDGE('',*,*,#415,.F.);
#199=ORIENTED_EDGE('',*,*,#416,.T.);
#200=ORIENTED_EDGE('',*,*,#412,.T.);
#201=ORIENTED_EDGE('',*,*,#417,.F.);
#202=ORIENTED_EDGE('',*,*,#418,.F.);
#203=ORIENTED_EDGE('',*,*,#419,.T.);
#204=ORIENTED_EDGE('',*,*,#415,.T.);
#205=ORIENTED_EDGE('',*,*,#420,.F.);
#206=ORIENTED_EDGE('',*,*,#421,.F.);
#207=ORIENTED_EDGE('',*,*,#422,.T.);
#208=ORIENTED_EDGE('',*,*,#418,.T.);
#209=ORIENTED_EDGE('',*,*,#423,.F.);
#210=ORIENTED_EDGE('',*,*,#424,.F.);
#211=ORIENTED_EDGE('',*,*,#425,.T.);
#212=ORIENTED_EDGE('',*,*,#421,.T.);
#213=ORIENTED_EDGE('',*,*,#426,.F.);
#214=ORIENTED_EDGE('',*,*,#427,.F.);
#215=ORIENTED_EDGE('',*,*,#428,.T.);
#216=ORIENTED_EDGE('',*,*,#424,.T.);
#217=ORIENTED_EDGE('',*,*,#429,.F.);
#218=ORIENTED_EDGE('',*,*,#308,.F.);
#219=ORIENTED_EDGE('',*,*,#430,.T.);
#220=ORIENTED_EDGE('',*,*,#427,.T.);
#221=ORIENTED_EDGE('',*,*,#307,.F.);
#222=ORIENTED_EDGE('',*,*,#311,.F.);
#223=ORIENTED_EDGE('',*,*,#314,.F.);
#224=ORIENTED_EDGE('',*,*,#317,.T.);
#225=ORIENTED_EDGE('',*,*,#320,.F.);
#226=ORIENTED_EDGE('',*,*,#323,.T.);
#227=ORIENTED_EDGE('',*,*,#326,.T.);
#228=ORIENTED_EDGE('',*,*,#329,.F.);
#229=ORIENTED_EDGE('',*,*,#332,.T.);
#230=ORIENTED_EDGE('',*,*,#335,.T.);
#231=ORIENTED_EDGE('',*,*,#338,.F.);
#232=ORIENTED_EDGE('',*,*,#341,.F.);
#233=ORIENTED_EDGE('',*,*,#344,.F.);
#234=ORIENTED_EDGE('',*,*,#347,.F.);
#235=ORIENTED_EDGE('',*,*,#350,.T.);
#236=ORIENTED_EDGE('',*,*,#353,.T.);
#237=ORIENTED_EDGE('',*,*,#356,.T.);
#238=ORIENTED_EDGE('',*,*,#359,.T.);
#239=ORIENTED_EDGE('',*,*,#362,.T.);
#240=ORIENTED_EDGE('',*,*,#365,.T.);
#241=ORIENTED_EDGE('',*,*,#368,.F.);
#242=ORIENTED_EDGE('',*,*,#371,.T.);
#243=ORIENTED_EDGE('',*,*,#374,.F.);
#244=ORIENTED_EDGE('',*,*,#377,.T.);
#245=ORIENTED_EDGE('',*,*,#380,.F.);
#246=ORIENTED_EDGE('',*,*,#383,.F.);
#247=ORIENTED_EDGE('',*,*,#386,.F.);
#248=ORIENTED_EDGE('',*,*,#389,.T.);
#249=ORIENTED_EDGE('',*,*,#392,.T.);
#250=ORIENTED_EDGE('',*,*,#395,.T.);
#251=ORIENTED_EDGE('',*,*,#398,.T.);
#252=ORIENTED_EDGE('',*,*,#401,.F.);
#253=ORIENTED_EDGE('',*,*,#404,.F.);
#254=ORIENTED_EDGE('',*,*,#407,.F.);
#255=ORIENTED_EDGE('',*,*,#410,.F.);
#256=ORIENTED_EDGE('',*,*,#413,.F.);
#257=ORIENTED_EDGE('',*,*,#416,.F.);
#258=ORIENTED_EDGE('',*,*,#419,.F.);
#259=ORIENTED_EDGE('',*,*,#422,.F.);
#260=ORIENTED_EDGE('',*,*,#425,.F.);
#261=ORIENTED_EDGE('',*,*,#428,.F.);
#262=ORIENTED_EDGE('',*,*,#430,.F.);
#263=ORIENTED_EDGE('',*,*,#305,.T.);
#264=ORIENTED_EDGE('',*,*,#429,.T.);
#265=ORIENTED_EDGE('',*,*,#426,.T.);
#266=ORIENTED_EDGE('',*,*,#423,.T.);
#267=ORIENTED_EDGE('',*,*,#420,.T.);
#268=ORIENTED_EDGE('',*,*,#417,.T.);
#269=ORIENTED_EDGE('',*,*,#414,.T.);
#270=ORIENTED_EDGE('',*,*,#411,.T.);
#271=ORIENTED_EDGE('',*,*,#408,.T.);
#272=ORIENTED_EDGE('',*,*,#405,.T.);
#273=ORIENTED_EDGE('',*,*,#402,.T.);
#274=ORIENTED_EDGE('',*,*,#399,.T.);
#275=ORIENTED_EDGE('',*,*,#396,.F.);
#276=ORIENTED_EDGE('',*,*,#393,.F.);
#277=ORIENTED_EDGE('',*,*,#390,.F.);
#278=ORIENTED_EDGE('',*,*,#387,.F.);
#279=ORIENTED_EDGE('',*,*,#384,.T.);
#280=ORIENTED_EDGE('',*,*,#381,.T.);
#281=ORIENTED_EDGE('',*,*,#378,.T.);
#282=ORIENTED_EDGE('',*,*,#375,.F.);
#283=ORIENTED_EDGE('',*,*,#372,.T.);
#284=ORIENTED_EDGE('',*,*,#369,.F.);
#285=ORIENTED_EDGE('',*,*,#366,.T.);
#286=ORIENTED_EDGE('',*,*,#363,.F.);
#287=ORIENTED_EDGE('',*,*,#360,.F.);
#288=ORIENTED_EDGE('',*,*,#357,.F.);
#289=ORIENTED_EDGE('',*,*,#354,.F.);
#290=ORIENTED_EDGE('',*,*,#351,.F.);
#291=ORIENTED_EDGE('',*,*,#348,.F.);
#292=ORIENTED_EDGE('',*,*,#345,.T.);
#293=ORIENTED_EDGE('',*,*,#342,.T.);
#294=ORIENTED_EDGE('',*,*,#339,.T.);
#295=ORIENTED_EDGE('',*,*,#336,.T.);
#296=ORIENTED_EDGE('',*,*,#333,.F.);
#297=ORIENTED_EDGE('',*,*,#330,.F.);
#298=ORIENTED_EDGE('',*,*,#327,.T.);
#299=ORIENTED_EDGE('',*,*,#324,.F.);
#300=ORIENTED_EDGE('',*,*,#321,.F.);
#301=ORIENTED_EDGE('',*,*,#318,.T.);
#302=ORIENTED_EDGE('',*,*,#315,.F.);
#303=ORIENTED_EDGE('',*,*,#312,.T.);
#304=ORIENTED_EDGE('',*,*,#309,.T.);
#305=EDGE_CURVE('',#431,#432,#515,.T.);
#306=EDGE_CURVE('',#433,#431,#516,.T.);
#307=EDGE_CURVE('',#433,#434,#517,.T.);
#308=EDGE_CURVE('',#434,#432,#518,.T.);
#309=EDGE_CURVE('',#435,#431,#519,.T.);
#310=EDGE_CURVE('',#436,#435,#520,.T.);
#311=EDGE_CURVE('',#436,#433,#521,.T.);
#312=EDGE_CURVE('',#437,#435,#522,.T.);
#313=EDGE_CURVE('',#438,#437,#523,.T.);
#314=EDGE_CURVE('',#438,#436,#524,.T.);
#315=EDGE_CURVE('',#437,#439,#525,.T.);
#316=EDGE_CURVE('',#440,#439,#526,.T.);
#317=EDGE_CURVE('',#438,#440,#527,.T.);
#318=EDGE_CURVE('',#441,#439,#20,.T.);
#319=EDGE_CURVE('',#442,#441,#528,.T.);
#320=EDGE_CURVE('',#442,#440,#21,.T.);
#321=EDGE_CURVE('',#441,#443,#529,.T.);
#322=EDGE_CURVE('',#444,#443,#530,.T.);
#323=EDGE_CURVE('',#442,#444,#531,.T.);
#324=EDGE_CURVE('',#443,#445,#532,.T.);
#325=EDGE_CURVE('',#446,#445,#533,.T.);
#326=EDGE_CURVE('',#444,#446,#534,.T.);
#327=EDGE_CURVE('',#447,#445,#535,.T.);
#328=EDGE_CURVE('',#448,#447,#536,.T.);
#329=EDGE_CURVE('',#448,#446,#537,.T.);
#330=EDGE_CURVE('',#447,#449,#538,.T.);
#331=EDGE_CURVE('',#450,#449,#539,.T.);
#332=EDGE_CURVE('',#448,#450,#540,.T.);
#333=EDGE_CURVE('',#449,#451,#22,.T.);
#334=EDGE_CURVE('',#452,#451,#541,.T.);
#335=EDGE_CURVE('',#450,#452,#23,.T.);
#336=EDGE_CURVE('',#453,#451,#542,.T.);
#337=EDGE_CURVE('',#454,#453,#543,.T.);
#338=EDGE_CURVE('',#454,#452,#544,.T.);
#339=EDGE_CURVE('',#455,#453,#24,.T.);
#340=EDGE_CURVE('',#456,#455,#545,.T.);
#341=EDGE_CURVE('',#456,#454,#25,.T.);
#342=EDGE_CURVE('',#457,#455,#546,.T.);
#343=EDGE_CURVE('',#458,#457,#547,.T.);
#344=EDGE_CURVE('',#458,#456,#548,.T.);
#345=EDGE_CURVE('',#459,#457,#26,.T.);
#346=EDGE_CURVE('',#460,#459,#549,.T.);
#347=EDGE_CURVE('',#460,#458,#27,.T.);
#348=EDGE_CURVE('',#459,#461,#550,.T.);
#349=EDGE_CURVE('',#462,#461,#551,.T.);
#350=EDGE_CURVE('',#460,#462,#552,.T.);
#351=EDGE_CURVE('',#461,#463,#28,.T.);
#352=EDGE_CURVE('',#464,#463,#553,.T.);
#353=EDGE_CURVE('',#462,#464,#29,.T.);
#354=EDGE_CURVE('',#463,#465,#554,.T.);
#355=EDGE_CURVE('',#466,#465,#555,.T.);
#356=EDGE_CURVE('',#464,#466,#556,.T.);
#357=EDGE_CURVE('',#465,#467,#30,.T.);
#358=EDGE_CURVE('',#468,#467,#557,.T.);
#359=EDGE_CURVE('',#466,#468,#31,.T.);
#360=EDGE_CURVE('',#467,#469,#558,.T.);
#361=EDGE_CURVE('',#470,#469,#559,.T.);
#362=EDGE_CURVE('',#468,#470,#560,.T.);
#363=EDGE_CURVE('',#469,#471,#561,.T.);
#364=EDGE_CURVE('',#472,#471,#562,.T.);
#365=EDGE_CURVE('',#470,#472,#563,.T.);
#366=EDGE_CURVE('',#473,#471,#564,.T.);
#367=EDGE_CURVE('',#474,#473,#565,.T.);
#368=EDGE_CURVE('',#474,#472,#566,.T.);
#369=EDGE_CURVE('',#473,#475,#32,.T.);
#370=EDGE_CURVE('',#476,#475,#567,.T.);
#371=EDGE_CURVE('',#474,#476,#33,.T.);
#372=EDGE_CURVE('',#477,#475,#568,.T.);
#373=EDGE_CURVE('',#478,#477,#569,.T.);
#374=EDGE_CURVE('',#478,#476,#570,.T.);
#375=EDGE_CURVE('',#477,#479,#34,.T.);
#376=EDGE_CURVE('',#480,#479,#571,.T.);
#377=EDGE_CURVE('',#478,#480,#35,.T.);
#378=EDGE_CURVE('',#481,#479,#572,.T.);
#379=EDGE_CURVE('',#482,#481,#573,.T.);
#380=EDGE_CURVE('',#482,#480,#574,.T.);
#381=EDGE_CURVE('',#483,#481,#36,.T.);
#382=EDGE_CURVE('',#484,#483,#575,.T.);
#383=EDGE_CURVE('',#484,#482,#37,.T.);
#384=EDGE_CURVE('',#485,#483,#576,.T.);
#385=EDGE_CURVE('',#486,#485,#577,.T.);
#386=EDGE_CURVE('',#486,#484,#578,.T.);
#387=EDGE_CURVE('',#485,#487,#38,.T.);
#388=EDGE_CURVE('',#488,#487,#579,.T.);
#389=EDGE_CURVE('',#486,#488,#39,.T.);
#390=EDGE_CURVE('',#487,#489,#580,.T.);
#391=EDGE_CURVE('',#490,#489,#581,.T.);
#392=EDGE_CURVE('',#488,#490,#582,.T.);
#393=EDGE_CURVE('',#489,#491,#583,.T.);
#394=EDGE_CURVE('',#492,#491,#584,.T.);
#395=EDGE_CURVE('',#490,#492,#585,.T.);
#396=EDGE_CURVE('',#491,#493,#40,.T.);
#397=EDGE_CURVE('',#494,#493,#586,.T.);
#398=EDGE_CURVE('',#492,#494,#41,.T.);
#399=EDGE_CURVE('',#495,#493,#587,.T.);
#400=EDGE_CURVE('',#496,#495,#588,.T.);
#401=EDGE_CURVE('',#496,#494,#589,.T.);
#402=EDGE_CURVE('',#497,#495,#590,.T.);
#403=EDGE_CURVE('',#498,#497,#591,.T.);
#404=EDGE_CURVE('',#498,#496,#592,.T.);
#405=EDGE_CURVE('',#499,#497,#593,.T.);
#406=EDGE_CURVE('',#500,#499,#594,.T.);
#407=EDGE_CURVE('',#500,#498,#595,.T.);
#408=EDGE_CURVE('',#501,#499,#596,.T.);
#409=EDGE_CURVE('',#502,#501,#597,.T.);
#410=EDGE_CURVE('',#502,#500,#598,.T.);
#411=EDGE_CURVE('',#503,#501,#599,.T.);
#412=EDGE_CURVE('',#504,#503,#600,.T.);
#413=EDGE_CURVE('',#504,#502,#601,.T.);
#414=EDGE_CURVE('',#505,#503,#602,.T.);
#415=EDGE_CURVE('',#506,#505,#603,.T.);
#416=EDGE_CURVE('',#506,#504,#604,.T.);
#417=EDGE_CURVE('',#507,#505,#605,.T.);
#418=EDGE_CURVE('',#508,#507,#606,.T.);
#419=EDGE_CURVE('',#508,#506,#607,.T.);
#420=EDGE_CURVE('',#509,#507,#608,.T.);
#421=EDGE_CURVE('',#510,#509,#609,.T.);
#422=EDGE_CURVE('',#510,#508,#610,.T.);
#423=EDGE_CURVE('',#511,#509,#611,.T.);
#424=EDGE_CURVE('',#512,#511,#612,.T.);
#425=EDGE_CURVE('',#512,#510,#613,.T.);
#426=EDGE_CURVE('',#513,#511,#614,.T.);
#427=EDGE_CURVE('',#514,#513,#615,.T.);
#428=EDGE_CURVE('',#514,#512,#616,.T.);
#429=EDGE_CURVE('',#432,#513,#617,.T.);
#430=EDGE_CURVE('',#434,#514,#618,.T.);
#431=VERTEX_POINT('',#1208);
#432=VERTEX_POINT('',#1209);
#433=VERTEX_POINT('',#1211);
#434=VERTEX_POINT('',#1213);
#435=VERTEX_POINT('',#1217);
#436=VERTEX_POINT('',#1219);
#437=VERTEX_POINT('',#1223);
#438=VERTEX_POINT('',#1225);
#439=VERTEX_POINT('',#1229);
#440=VERTEX_POINT('',#1231);
#441=VERTEX_POINT('',#1235);
#442=VERTEX_POINT('',#1237);
#443=VERTEX_POINT('',#1241);
#444=VERTEX_POINT('',#1243);
#445=VERTEX_POINT('',#1247);
#446=VERTEX_POINT('',#1249);
#447=VERTEX_POINT('',#1253);
#448=VERTEX_POINT('',#1255);
#449=VERTEX_POINT('',#1259);
#450=VERTEX_POINT('',#1261);
#451=VERTEX_POINT('',#1265);
#452=VERTEX_POINT('',#1267);
#453=VERTEX_POINT('',#1271);
#454=VERTEX_POINT('',#1273);
#455=VERTEX_POINT('',#1277);
#456=VERTEX_POINT('',#1279);
#457=VERTEX_POINT('',#1283);
#458=VERTEX_POINT('',#1285);
#459=VERTEX_POINT('',#1289);
#460=VERTEX_POINT('',#1291);
#461=VERTEX_POINT('',#1295);
#462=VERTEX_POINT('',#1297);
#463=VERTEX_POINT('',#1301);
#464=VERTEX_POINT('',#1303);
#465=VERTEX_POINT('',#1307);
#466=VERTEX_POINT('',#1309);
#467=VERTEX_POINT('',#1313);
#468=VERTEX_POINT('',#1315);
#469=VERTEX_POINT('',#1319);
#470=VERTEX_POINT('',#1321);
#471=VERTEX_POINT('',#1325);
#472=VERTEX_POINT('',#1327);
#473=VERTEX_POINT('',#1331);
#474=VERTEX_POINT('',#1333);
#475=VERTEX_POINT('',#1337);
#476=VERTEX_POINT('',#1339);
#477=VERTEX_POINT('',#1343);
#478=VERTEX_POINT('',#1345);
#479=VERTEX_POINT('',#1349);
#480=VERTEX_POINT('',#1351);
#481=VERTEX_POINT('',#1355);
#482=VERTEX_POINT('',#1357);
#483=VERTEX_POINT('',#1361);
#484=VERTEX_POINT('',#1363);
#485=VERTEX_POINT('',#1367);
#486=VERTEX_POINT('',#1369);
#487=VERTEX_POINT('',#1373);
#488=VERTEX_POINT('',#1375);
#489=VERTEX_POINT('',#1379);
#490=VERTEX_POINT('',#1381);
#491=VERTEX_POINT('',#1385);
#492=VERTEX_POINT('',#1387);
#493=VERTEX_POINT('',#1391);
#494=VERTEX_POINT('',#1393);
#495=VERTEX_POINT('',#1397);
#496=VERTEX_POINT('',#1399);
#497=VERTEX_POINT('',#1403);
#498=VERTEX_POINT('',#1405);
#499=VERTEX_POINT('',#1409);
#500=VERTEX_POINT('',#1411);
#501=VERTEX_POINT('',#1415);
#502=VERTEX_POINT('',#1417);
#503=VERTEX_POINT('',#1421);
#504=VERTEX_POINT('',#1423);
#505=VERTEX_POINT('',#1427);
#506=VERTEX_POINT('',#1429);
#507=VERTEX_POINT('',#1433);
#508=VERTEX_POINT('',#1435);
#509=VERTEX_POINT('',#1439);
#510=VERTEX_POINT('',#1441);
#511=VERTEX_POINT('',#1445);
#512=VERTEX_POINT('',#1447);
#513=VERTEX_POINT('',#1451);
#514=VERTEX_POINT('',#1453);
#515=LINE('',#1207,#619);
#516=LINE('',#1210,#620);
#517=LINE('',#1212,#621);
#518=LINE('',#1214,#622);
#519=LINE('',#1216,#623);
#520=LINE('',#1218,#624);
#521=LINE('',#1220,#625);
#522=LINE('',#1222,#626);
#523=LINE('',#1224,#627);
#524=LINE('',#1226,#628);
#525=LINE('',#1228,#629);
#526=LINE('',#1230,#630);
#527=LINE('',#1232,#631);
#528=LINE('',#1236,#632);
#529=LINE('',#1240,#633);
#530=LINE('',#1242,#634);
#531=LINE('',#1244,#635);
#532=LINE('',#1246,#636);
#533=LINE('',#1248,#637);
#534=LINE('',#1250,#638);
#535=LINE('',#1252,#639);
#536=LINE('',#1254,#640);
#537=LINE('',#1256,#641);
#538=LINE('',#1258,#642);
#539=LINE('',#1260,#643);
#540=LINE('',#1262,#644);
#541=LINE('',#1266,#645);
#542=LINE('',#1270,#646);
#543=LINE('',#1272,#647);
#544=LINE('',#1274,#648);
#545=LINE('',#1278,#649);
#546=LINE('',#1282,#650);
#547=LINE('',#1284,#651);
#548=LINE('',#1286,#652);
#549=LINE('',#1290,#653);
#550=LINE('',#1294,#654);
#551=LINE('',#1296,#655);
#552=LINE('',#1298,#656);
#553=LINE('',#1302,#657);
#554=LINE('',#1306,#658);
#555=LINE('',#1308,#659);
#556=LINE('',#1310,#660);
#557=LINE('',#1314,#661);
#558=LINE('',#1318,#662);
#559=LINE('',#1320,#663);
#560=LINE('',#1322,#664);
#561=LINE('',#1324,#665);
#562=LINE('',#1326,#666);
#563=LINE('',#1328,#667);
#564=LINE('',#1330,#668);
#565=LINE('',#1332,#669);
#566=LINE('',#1334,#670);
#567=LINE('',#1338,#671);
#568=LINE('',#1342,#672);
#569=LINE('',#1344,#673);
#570=LINE('',#1346,#674);
#571=LINE('',#1350,#675);
#572=LINE('',#1354,#676);
#573=LINE('',#1356,#677);
#574=LINE('',#1358,#678);
#575=LINE('',#1362,#679);
#576=LINE('',#1366,#680);
#577=LINE('',#1368,#681);
#578=LINE('',#1370,#682);
#579=LINE('',#1374,#683);
#580=LINE('',#1378,#684);
#581=LINE('',#1380,#685);
#582=LINE('',#1382,#686);
#583=LINE('',#1384,#687);
#584=LINE('',#1386,#688);
#585=LINE('',#1388,#689);
#586=LINE('',#1392,#690);
#587=LINE('',#1396,#691);
#588=LINE('',#1398,#692);
#589=LINE('',#1400,#693);
#590=LINE('',#1402,#694);
#591=LINE('',#1404,#695);
#592=LINE('',#1406,#696);
#593=LINE('',#1408,#697);
#594=LINE('',#1410,#698);
#595=LINE('',#1412,#699);
#596=LINE('',#1414,#700);
#597=LINE('',#1416,#701);
#598=LINE('',#1418,#702);
#599=LINE('',#1420,#703);
#600=LINE('',#1422,#704);
#601=LINE('',#1424,#705);
#602=LINE('',#1426,#706);
#603=LINE('',#1428,#707);
#604=LINE('',#1430,#708);
#605=LINE('',#1432,#709);
#606=LINE('',#1434,#710);
#607=LINE('',#1436,#711);
#608=LINE('',#1438,#712);
#609=LINE('',#1440,#713);
#610=LINE('',#1442,#714);
#611=LINE('',#1444,#715);
#612=LINE('',#1446,#716);
#613=LINE('',#1448,#717);
#614=LINE('',#1450,#718);
#615=LINE('',#1452,#719);
#616=LINE('',#1454,#720);
#617=LINE('',#1456,#721);
#618=LINE('',#1457,#722);
#619=VECTOR('',#971,1.);
#620=VECTOR('',#972,1.);
#621=VECTOR('',#973,1.);
#622=VECTOR('',#974,1.);
#623=VECTOR('',#977,1.);
#624=VECTOR('',#978,1.);
#625=VECTOR('',#979,1.);
#626=VECTOR('',#982,1.);
#627=VECTOR('',#983,1.);
#628=VECTOR('',#984,1.);
#629=VECTOR('',#987,1.);
#630=VECTOR('',#988,1.);
#631=VECTOR('',#989,1.);
#632=VECTOR('',#994,1.);
#633=VECTOR('',#999,1.);
#634=VECTOR('',#1000,1.);
#635=VECTOR('',#1001,1.);
#636=VECTOR('',#1004,1.);
#637=VECTOR('',#1005,1.);
#638=VECTOR('',#1006,1.);
#639=VECTOR('',#1009,1.);
#640=VECTOR('',#1010,1.);
#641=VECTOR('',#1011,1.);
#642=VECTOR('',#1014,1.);
#643=VECTOR('',#1015,1.);
#644=VECTOR('',#1016,1.);
#645=VECTOR('',#1021,1.);
#646=VECTOR('',#1026,1.);
#647=VECTOR('',#1027,1.);
#648=VECTOR('',#1028,1.);
#649=VECTOR('',#1033,1.);
#650=VECTOR('',#1038,1.);
#651=VECTOR('',#1039,1.);
#652=VECTOR('',#1040,1.);
#653=VECTOR('',#1045,1.);
#654=VECTOR('',#1050,1.);
#655=VECTOR('',#1051,1.);
#656=VECTOR('',#1052,1.);
#657=VECTOR('',#1057,1.);
#658=VECTOR('',#1062,1.);
#659=VECTOR('',#1063,1.);
#660=VECTOR('',#1064,1.);
#661=VECTOR('',#1069,1.);
#662=VECTOR('',#1074,1.);
#663=VECTOR('',#1075,1.);
#664=VECTOR('',#1076,1.);
#665=VECTOR('',#1079,1.);
#666=VECTOR('',#1080,1.);
#667=VECTOR('',#1081,1.);
#668=VECTOR('',#1084,1.);
#669=VECTOR('',#1085,1.);
#670=VECTOR('',#1086,1.);
#671=VECTOR('',#1091,1.);
#672=VECTOR('',#1096,1.);
#673=VECTOR('',#1097,1.);
#674=VECTOR('',#1098,1.);
#675=VECTOR('',#1103,1.);
#676=VECTOR('',#1108,1.);
#677=VECTOR('',#1109,1.);
#678=VECTOR('',#1110,1.);
#679=VECTOR('',#1115,1.);
#680=VECTOR('',#1120,1.);
#681=VECTOR('',#1121,1.);
#682=VECTOR('',#1122,1.);
#683=VECTOR('',#1127,1.);
#684=VECTOR('',#1132,1.);
#685=VECTOR('',#1133,1.);
#686=VECTOR('',#1134,1.);
#687=VECTOR('',#1137,1.);
#688=VECTOR('',#1138,1.);
#689=VECTOR('',#1139,1.);
#690=VECTOR('',#1144,1.);
#691=VECTOR('',#1149,1.);
#692=VECTOR('',#1150,1.);
#693=VECTOR('',#1151,1.);
#694=VECTOR('',#1154,1.);
#695=VECTOR('',#1155,1.);
#696=VECTOR('',#1156,1.);
#697=VECTOR('',#1159,1.);
#698=VECTOR('',#1160,1.);
#699=VECTOR('',#1161,1.);
#700=VECTOR('',#1164,1.);
#701=VECTOR('',#1165,1.);
#702=VECTOR('',#1166,1.);
#703=VECTOR('',#1169,1.);
#704=VECTOR('',#1170,1.);
#705=VECTOR('',#1171,1.);
#706=VECTOR('',#1174,1.);
#707=VECTOR('',#1175,1.);
#708=VECTOR('',#1176,1.);
#709=VECTOR('',#1179,1.);
#710=VECTOR('',#1180,1.);
#711=VECTOR('',#1181,1.);
#712=VECTOR('',#1184,1.);
#713=VECTOR('',#1185,1.);
#714=VECTOR('',#1186,1.);
#715=VECTOR('',#1189,1.);
#716=VECTOR('',#1190,1.);
#717=VECTOR('',#1191,1.);
#718=VECTOR('',#1194,1.);
#719=VECTOR('',#1195,1.);
#720=VECTOR('',#1196,1.);
#721=VECTOR('',#1199,1.);
#722=VECTOR('',#1200,1.);
#723=EDGE_LOOP('',(#53,#54,#55,#56));
#724=EDGE_LOOP('',(#57,#58,#59,#60));
#725=EDGE_LOOP('',(#61,#62,#63,#64));
#726=EDGE_LOOP('',(#65,#66,#67,#68));
#727=EDGE_LOOP('',(#69,#70,#71,#72));
#728=EDGE_LOOP('',(#73,#74,#75,#76));
#729=EDGE_LOOP('',(#77,#78,#79,#80));
#730=EDGE_LOOP('',(#81,#82,#83,#84));
#731=EDGE_LOOP('',(#85,#86,#87,#88));
#732=EDGE_LOOP('',(#89,#90,#91,#92));
#733=EDGE_LOOP('',(#93,#94,#95,#96));
#734=EDGE_LOOP('',(#97,#98,#99,#100));
#735=EDGE_LOOP('',(#101,#102,#103,#104));
#736=EDGE_LOOP('',(#105,#106,#107,#108));
#737=EDGE_LOOP('',(#109,#110,#111,#112));
#738=EDGE_LOOP('',(#113,#114,#115,#116));
#739=EDGE_LOOP('',(#117,#118,#119,#120));
#740=EDGE_LOOP('',(#121,#122,#123,#124));
#741=EDGE_LOOP('',(#125,#126,#127,#128));
#742=EDGE_LOOP('',(#129,#130,#131,#132));
#743=EDGE_LOOP('',(#133,#134,#135,#136));
#744=EDGE_LOOP('',(#137,#138,#139,#140));
#745=EDGE_LOOP('',(#141,#142,#143,#144));
#746=EDGE_LOOP('',(#145,#146,#147,#148));
#747=EDGE_LOOP('',(#149,#150,#151,#152));
#748=EDGE_LOOP('',(#153,#154,#155,#156));
#749=EDGE_LOOP('',(#157,#158,#159,#160));
#750=EDGE_LOOP('',(#161,#162,#163,#164));
#751=EDGE_LOOP('',(#165,#166,#167,#168));
#752=EDGE_LOOP('',(#169,#170,#171,#172));
#753=EDGE_LOOP('',(#173,#174,#175,#176));
#754=EDGE_LOOP('',(#177,#178,#179,#180));
#755=EDGE_LOOP('',(#181,#182,#183,#184));
#756=EDGE_LOOP('',(#185,#186,#187,#188));
#757=EDGE_LOOP('',(#189,#190,#191,#192));
#758=EDGE_LOOP('',(#193,#194,#195,#196));
#759=EDGE_LOOP('',(#197,#198,#199,#200));
#760=EDGE_LOOP('',(#201,#202,#203,#204));
#761=EDGE_LOOP('',(#205,#206,#207,#208));
#762=EDGE_LOOP('',(#209,#210,#211,#212));
#763=EDGE_LOOP('',(#213,#214,#215,#216));
#764=EDGE_LOOP('',(#217,#218,#219,#220));
#765=EDGE_LOOP('',(#221,#222,#223,#224,#225,#226,#227,#228,#229,#230,#231,
#232,#233,#234,#235,#236,#237,#238,#239,#240,#241,#242,#243,#244,#245,#246,
#247,#248,#249,#250,#251,#252,#253,#254,#255,#256,#257,#258,#259,#260,#261,
#262));
#766=EDGE_LOOP('',(#263,#264,#265,#266,#267,#268,#269,#270,#271,#272,#273,
#274,#275,#276,#277,#278,#279,#280,#281,#282,#283,#284,#285,#286,#287,#288,
#289,#290,#291,#292,#293,#294,#295,#296,#297,#298,#299,#300,#301,#302,#303,
#304));
#767=FACE_BOUND('',#723,.T.);
#768=FACE_BOUND('',#724,.T.);
#769=FACE_BOUND('',#725,.T.);
#770=FACE_BOUND('',#726,.T.);
#771=FACE_BOUND('',#727,.T.);
#772=FACE_BOUND('',#728,.T.);
#773=FACE_BOUND('',#729,.T.);
#774=FACE_BOUND('',#730,.T.);
#775=FACE_BOUND('',#731,.T.);
#776=FACE_BOUND('',#732,.T.);
#777=FACE_BOUND('',#733,.T.);
#778=FACE_BOUND('',#734,.T.);
#779=FACE_BOUND('',#735,.T.);
#780=FACE_BOUND('',#736,.T.);
#781=FACE_BOUND('',#737,.T.);
#782=FACE_BOUND('',#738,.T.);
#783=FACE_BOUND('',#739,.T.);
#784=FACE_BOUND('',#740,.T.);
#785=FACE_BOUND('',#741,.T.);
#786=FACE_BOUND('',#742,.T.);
#787=FACE_BOUND('',#743,.T.);
#788=FACE_BOUND('',#744,.T.);
#789=FACE_BOUND('',#745,.T.);
#790=FACE_BOUND('',#746,.T.);
#791=FACE_BOUND('',#747,.T.);
#792=FACE_BOUND('',#748,.T.);
#793=FACE_BOUND('',#749,.T.);
#794=FACE_BOUND('',#750,.T.);
#795=FACE_BOUND('',#751,.T.);
#796=FACE_BOUND('',#752,.T.);
#797=FACE_BOUND('',#753,.T.);
#798=FACE_BOUND('',#754,.T.);
#799=FACE_BOUND('',#755,.T.);
#800=FACE_BOUND('',#756,.T.);
#801=FACE_BOUND('',#757,.T.);
#802=FACE_BOUND('',#758,.T.);
#803=FACE_BOUND('',#759,.T.);
#804=FACE_BOUND('',#760,.T.);
#805=FACE_BOUND('',#761,.T.);
#806=FACE_BOUND('',#762,.T.);
#807=FACE_BOUND('',#763,.T.);
#808=FACE_BOUND('',#764,.T.);
#809=FACE_BOUND('',#765,.T.);
#810=FACE_BOUND('',#766,.T.);
#811=PLANE('',#901);
#812=PLANE('',#902);
#813=PLANE('',#903);
#814=PLANE('',#904);
#815=PLANE('',#908);
#816=PLANE('',#909);
#817=PLANE('',#910);
#818=PLANE('',#911);
#819=PLANE('',#915);
#820=PLANE('',#919);
#821=PLANE('',#923);
#822=PLANE('',#927);
#823=PLANE('',#931);
#824=PLANE('',#932);
#825=PLANE('',#933);
#826=PLANE('',#937);
#827=PLANE('',#941);
#828=PLANE('',#945);
#829=PLANE('',#949);
#830=PLANE('',#950);
#831=PLANE('',#954);
#832=PLANE('',#955);
#833=PLANE('',#956);
#834=PLANE('',#957);
#835=PLANE('',#958);
#836=PLANE('',#959);
#837=PLANE('',#960);
#838=PLANE('',#961);
#839=PLANE('',#962);
#840=PLANE('',#963);
#841=PLANE('',#964);
#842=PLANE('',#965);
#843=PLANE('',#966);
#844=ADVANCED_FACE('',(#767),#811,.T.);
#845=ADVANCED_FACE('',(#768),#812,.T.);
#846=ADVANCED_FACE('',(#769),#813,.T.);
#847=ADVANCED_FACE('',(#770),#814,.F.);
#848=ADVANCED_FACE('',(#771),#42,.F.);
#849=ADVANCED_FACE('',(#772),#815,.F.);
#850=ADVANCED_FACE('',(#773),#816,.F.);
#851=ADVANCED_FACE('',(#774),#817,.T.);
#852=ADVANCED_FACE('',(#775),#818,.F.);
#853=ADVANCED_FACE('',(#776),#43,.T.);
#854=ADVANCED_FACE('',(#777),#819,.T.);
#855=ADVANCED_FACE('',(#778),#44,.F.);
#856=ADVANCED_FACE('',(#779),#820,.T.);
#857=ADVANCED_FACE('',(#780),#45,.F.);
#858=ADVANCED_FACE('',(#781),#821,.F.);
#859=ADVANCED_FACE('',(#782),#46,.T.);
#860=ADVANCED_FACE('',(#783),#822,.F.);
#861=ADVANCED_FACE('',(#784),#47,.T.);
#862=ADVANCED_FACE('',(#785),#823,.F.);
#863=ADVANCED_FACE('',(#786),#824,.F.);
#864=ADVANCED_FACE('',(#787),#825,.T.);
#865=ADVANCED_FACE('',(#788),#48,.T.);
#866=ADVANCED_FACE('',(#789),#826,.T.);
#867=ADVANCED_FACE('',(#790),#49,.T.);
#868=ADVANCED_FACE('',(#791),#827,.T.);
#869=ADVANCED_FACE('',(#792),#50,.F.);
#870=ADVANCED_FACE('',(#793),#828,.T.);
#871=ADVANCED_FACE('',(#794),#51,.T.);
#872=ADVANCED_FACE('',(#795),#829,.F.);
#873=ADVANCED_FACE('',(#796),#830,.F.);
#874=ADVANCED_FACE('',(#797),#52,.T.);
#875=ADVANCED_FACE('',(#798),#831,.T.);
#876=ADVANCED_FACE('',(#799),#832,.T.);
#877=ADVANCED_FACE('',(#800),#833,.T.);
#878=ADVANCED_FACE('',(#801),#834,.T.);
#879=ADVANCED_FACE('',(#802),#835,.T.);
#880=ADVANCED_FACE('',(#803),#836,.T.);
#881=ADVANCED_FACE('',(#804),#837,.T.);
#882=ADVANCED_FACE('',(#805),#838,.T.);
#883=ADVANCED_FACE('',(#806),#839,.T.);
#884=ADVANCED_FACE('',(#807),#840,.T.);
#885=ADVANCED_FACE('',(#808),#841,.T.);
#886=ADVANCED_FACE('',(#809),#842,.T.);
#887=ADVANCED_FACE('',(#810),#843,.F.);
#888=CLOSED_SHELL('',(#844,#845,#846,#847,#848,#849,#850,#851,#852,#853,
#854,#855,#856,#857,#858,#859,#860,#861,#862,#863,#864,#865,#866,#867,#868,
#869,#870,#871,#872,#873,#874,#875,#876,#877,#878,#879,#880,#881,#882,#883,
#884,#885,#886,#887));
#889=STYLED_ITEM('',(#890),#897);
#890=PRESENTATION_STYLE_ASSIGNMENT((#891));
#891=SURFACE_STYLE_USAGE(.BOTH.,#892);
#892=SURFACE_SIDE_STYLE('',(#893));
#893=SURFACE_STYLE_FILL_AREA(#894);
#894=FILL_AREA_STYLE('',(#895));
#895=FILL_AREA_STYLE_COLOUR('',#896);
#896=COLOUR_RGB('',0.615686274509804,0.811764705882353,0.929411764705882);
#897=MANIFOLD_SOLID_BREP('Part 1',#888);
#898=SHAPE_DEFINITION_REPRESENTATION(#1466,#899);
#899=SHAPE_REPRESENTATION('Part 1',(#900),#1461);
#900=AXIS2_PLACEMENT_3D('',#1205,#967,#968);
#901=AXIS2_PLACEMENT_3D('',#1206,#969,#970);
#902=AXIS2_PLACEMENT_3D('',#1215,#975,#976);
#903=AXIS2_PLACEMENT_3D('',#1221,#980,#981);
#904=AXIS2_PLACEMENT_3D('',#1227,#985,#986);
#905=AXIS2_PLACEMENT_3D('',#1233,#990,#991);
#906=AXIS2_PLACEMENT_3D('',#1234,#992,#993);
#907=AXIS2_PLACEMENT_3D('',#1238,#995,#996);
#908=AXIS2_PLACEMENT_3D('',#1239,#997,#998);
#909=AXIS2_PLACEMENT_3D('',#1245,#1002,#1003);
#910=AXIS2_PLACEMENT_3D('',#1251,#1007,#1008);
#911=AXIS2_PLACEMENT_3D('',#1257,#1012,#1013);
#912=AXIS2_PLACEMENT_3D('',#1263,#1017,#1018);
#913=AXIS2_PLACEMENT_3D('',#1264,#1019,#1020);
#914=AXIS2_PLACEMENT_3D('',#1268,#1022,#1023);
#915=AXIS2_PLACEMENT_3D('',#1269,#1024,#1025);
#916=AXIS2_PLACEMENT_3D('',#1275,#1029,#1030);
#917=AXIS2_PLACEMENT_3D('',#1276,#1031,#1032);
#918=AXIS2_PLACEMENT_3D('',#1280,#1034,#1035);
#919=AXIS2_PLACEMENT_3D('',#1281,#1036,#1037);
#920=AXIS2_PLACEMENT_3D('',#1287,#1041,#1042);
#921=AXIS2_PLACEMENT_3D('',#1288,#1043,#1044);
#922=AXIS2_PLACEMENT_3D('',#1292,#1046,#1047);
#923=AXIS2_PLACEMENT_3D('',#1293,#1048,#1049);
#924=AXIS2_PLACEMENT_3D('',#1299,#1053,#1054);
#925=AXIS2_PLACEMENT_3D('',#1300,#1055,#1056);
#926=AXIS2_PLACEMENT_3D('',#1304,#1058,#1059);
#927=AXIS2_PLACEMENT_3D('',#1305,#1060,#1061);
#928=AXIS2_PLACEMENT_3D('',#1311,#1065,#1066);
#929=AXIS2_PLACEMENT_3D('',#1312,#1067,#1068);
#930=AXIS2_PLACEMENT_3D('',#1316,#1070,#1071);
#931=AXIS2_PLACEMENT_3D('',#1317,#1072,#1073);
#932=AXIS2_PLACEMENT_3D('',#1323,#1077,#1078);
#933=AXIS2_PLACEMENT_3D('',#1329,#1082,#1083);
#934=AXIS2_PLACEMENT_3D('',#1335,#1087,#1088);
#935=AXIS2_PLACEMENT_3D('',#1336,#1089,#1090);
#936=AXIS2_PLACEMENT_3D('',#1340,#1092,#1093);
#937=AXIS2_PLACEMENT_3D('',#1341,#1094,#1095);
#938=AXIS2_PLACEMENT_3D('',#1347,#1099,#1100);
#939=AXIS2_PLACEMENT_3D('',#1348,#1101,#1102);
#940=AXIS2_PLACEMENT_3D('',#1352,#1104,#1105);
#941=AXIS2_PLACEMENT_3D('',#1353,#1106,#1107);
#942=AXIS2_PLACEMENT_3D('',#1359,#1111,#1112);
#943=AXIS2_PLACEMENT_3D('',#1360,#1113,#1114);
#944=AXIS2_PLACEMENT_3D('',#1364,#1116,#1117);
#945=AXIS2_PLACEMENT_3D('',#1365,#1118,#1119);
#946=AXIS2_PLACEMENT_3D('',#1371,#1123,#1124);
#947=AXIS2_PLACEMENT_3D('',#1372,#1125,#1126);
#948=AXIS2_PLACEMENT_3D('',#1376,#1128,#1129);
#949=AXIS2_PLACEMENT_3D('',#1377,#1130,#1131);
#950=AXIS2_PLACEMENT_3D('',#1383,#1135,#1136);
#951=AXIS2_PLACEMENT_3D('',#1389,#1140,#1141);
#952=AXIS2_PLACEMENT_3D('',#1390,#1142,#1143);
#953=AXIS2_PLACEMENT_3D('',#1394,#1145,#1146);
#954=AXIS2_PLACEMENT_3D('',#1395,#1147,#1148);
#955=AXIS2_PLACEMENT_3D('',#1401,#1152,#1153);
#956=AXIS2_PLACEMENT_3D('',#1407,#1157,#1158);
#957=AXIS2_PLACEMENT_3D('',#1413,#1162,#1163);
#958=AXIS2_PLACEMENT_3D('',#1419,#1167,#1168);
#959=AXIS2_PLACEMENT_3D('',#1425,#1172,#1173);
#960=AXIS2_PLACEMENT_3D('',#1431,#1177,#1178);
#961=AXIS2_PLACEMENT_3D('',#1437,#1182,#1183);
#962=AXIS2_PLACEMENT_3D('',#1443,#1187,#1188);
#963=AXIS2_PLACEMENT_3D('',#1449,#1192,#1193);
#964=AXIS2_PLACEMENT_3D('',#1455,#1197,#1198);
#965=AXIS2_PLACEMENT_3D('',#1458,#1201,#1202);
#966=AXIS2_PLACEMENT_3D('',#1459,#1203,#1204);
#967=DIRECTION('',(0.,0.,1.));
#968=DIRECTION('',(1.,0.,0.));
#969=DIRECTION('',(-0.707106781186547,0.,0.707106781186549));
#970=DIRECTION('',(0.707106781186549,0.,0.707106781186547));
#971=DIRECTION('',(0.707106781186549,0.,0.707106781186547));
#972=DIRECTION('',(0.,1.,0.));
#973=DIRECTION('',(0.707106781186549,0.,0.707106781186547));
#974=DIRECTION('',(0.,1.,0.));
#975=DIRECTION('',(0.707106781186548,0.,0.707106781186547));
#976=DIRECTION('',(0.707106781186547,0.,-0.707106781186548));
#977=DIRECTION('',(0.707106781186547,0.,-0.707106781186548));
#978=DIRECTION('',(0.,1.,0.));
#979=DIRECTION('',(0.707106781186547,0.,-0.707106781186548));
#980=DIRECTION('',(-0.707106781186554,0.,0.707106781186541));
#981=DIRECTION('',(0.707106781186541,0.,0.707106781186554));
#982=DIRECTION('',(0.707106781186541,0.,0.707106781186554));
#983=DIRECTION('',(0.,1.,0.));
#984=DIRECTION('',(0.707106781186541,0.,0.707106781186554));
#985=DIRECTION('',(-1.,0.,-1.83697019872103E-16));
#986=DIRECTION('',(-1.83697019872103E-16,0.,1.));
#987=DIRECTION('',(-1.83697019872103E-16,0.,1.));
#988=DIRECTION('',(0.,1.,0.));
#989=DIRECTION('',(-1.83697019872103E-16,0.,1.));
#990=DIRECTION('',(0.,1.,0.));
#991=DIRECTION('',(0.,0.,1.));
#992=DIRECTION('',(0.,-1.,0.));
#993=DIRECTION('',(0.,0.,-1.));
#994=DIRECTION('',(0.,1.,0.));
#995=DIRECTION('',(0.,-1.,0.));
#996=DIRECTION('',(0.,0.,-1.));
#997=DIRECTION('',(0.,0.,1.));
#998=DIRECTION('',(1.,0.,0.));
#999=DIRECTION('',(1.,0.,0.));
#1000=DIRECTION('',(0.,1.,0.));
#1001=DIRECTION('',(1.,0.,0.));
#1002=DIRECTION('',(1.,0.,0.));
#1003=DIRECTION('',(0.,0.,-1.));
#1004=DIRECTION('',(0.,0.,-1.));
#1005=DIRECTION('',(0.,1.,0.));
#1006=DIRECTION('',(0.,0.,-1.));
#1007=DIRECTION('',(0.,0.,-1.));
#1008=DIRECTION('',(-1.,0.,0.));
#1009=DIRECTION('',(-1.,0.,0.));
#1010=DIRECTION('',(0.,1.,0.));
#1011=DIRECTION('',(-1.,0.,0.));
#1012=DIRECTION('',(-1.,0.,0.));
#1013=DIRECTION('',(0.,0.,1.));
#1014=DIRECTION('',(0.,0.,1.));
#1015=DIRECTION('',(0.,1.,0.));
#1016=DIRECTION('',(0.,0.,1.));
#1017=DIRECTION('',(0.,1.,0.));
#1018=DIRECTION('',(0.,0.,1.));
#1019=DIRECTION('',(0.,-1.,0.));
#1020=DIRECTION('',(0.,0.,-1.));
#1021=DIRECTION('',(0.,1.,0.));
#1022=DIRECTION('',(0.,-1.,0.));
#1023=DIRECTION('',(0.,0.,-1.));
#1024=DIRECTION('',(-4.44089209850063E-16,0.,1.));
#1025=DIRECTION('',(1.,0.,4.44089209850063E-16));
#1026=DIRECTION('',(1.,0.,4.44089209850063E-16));
#1027=DIRECTION('',(0.,1.,0.));
#1028=DIRECTION('',(1.,0.,4.44089209850063E-16));
#1029=DIRECTION('',(0.,1.,0.));
#1030=DIRECTION('',(0.,0.,1.));
#1031=DIRECTION('',(0.,-1.,0.));
#1032=DIRECTION('',(0.,0.,-1.));
#1033=DIRECTION('',(0.,1.,0.));
#1034=DIRECTION('',(0.,-1.,0.));
#1035=DIRECTION('',(0.,0.,-1.));
#1036=DIRECTION('',(1.,0.,6.12323399573677E-17));
#1037=DIRECTION('',(6.12323399573677E-17,0.,-1.));
#1038=DIRECTION('',(6.12323399573677E-17,0.,-1.));
#1039=DIRECTION('',(0.,1.,0.));
#1040=DIRECTION('',(6.12323399573677E-17,0.,-1.));
#1041=DIRECTION('',(0.,1.,0.));
#1042=DIRECTION('',(0.,0.,1.));
#1043=DIRECTION('',(0.,-1.,0.));
#1044=DIRECTION('',(0.,0.,-1.));
#1045=DIRECTION('',(0.,1.,0.));
#1046=DIRECTION('',(0.,-1.,0.));
#1047=DIRECTION('',(0.,0.,-1.));
#1048=DIRECTION('',(0.258819045102521,0.,0.965925826289069));
#1049=DIRECTION('',(0.965925826289069,0.,-0.258819045102521));
#1050=DIRECTION('',(0.965925826289068,0.,-0.258819045102521));
#1051=DIRECTION('',(0.,1.,0.));
#1052=DIRECTION('',(0.965925826289068,0.,-0.258819045102521));
#1053=DIRECTION('',(0.,1.,0.));
#1054=DIRECTION('',(0.,0.,1.));
#1055=DIRECTION('',(0.,-1.,0.));
#1056=DIRECTION('',(0.,0.,-1.));
#1057=DIRECTION('',(0.,1.,0.));
#1058=DIRECTION('',(0.,-1.,0.));
#1059=DIRECTION('',(0.,0.,-1.));
#1060=DIRECTION('',(-0.965925826289069,0.,0.258819045102518));
#1061=DIRECTION('',(0.258819045102518,0.,0.965925826289069));
#1062=DIRECTION('',(0.258819045102518,0.,0.965925826289069));
#1063=DIRECTION('',(0.,1.,0.));
#1064=DIRECTION('',(0.258819045102518,0.,0.965925826289069));
#1065=DIRECTION('',(0.,1.,0.));
#1066=DIRECTION('',(0.,0.,1.));
#1067=DIRECTION('',(0.,-1.,0.));
#1068=DIRECTION('',(0.,0.,-1.));
#1069=DIRECTION('',(0.,1.,0.));
#1070=DIRECTION('',(0.,-1.,0.));
#1071=DIRECTION('',(0.,0.,-1.));
#1072=DIRECTION('',(-0.258819045102521,0.,-0.965925826289068));
#1073=DIRECTION('',(-0.965925826289068,0.,0.258819045102521));
#1074=DIRECTION('',(-0.965925826289068,0.,0.258819045102521));
#1075=DIRECTION('',(0.,1.,0.));
#1076=DIRECTION('',(-0.965925826289068,0.,0.258819045102521));
#1077=DIRECTION('',(0.965925826289068,0.,-0.258819045102522));
#1078=DIRECTION('',(-0.258819045102522,0.,-0.965925826289068));
#1079=DIRECTION('',(-0.258819045102522,0.,-0.965925826289068));
#1080=DIRECTION('',(0.,1.,0.));
#1081=DIRECTION('',(-0.258819045102522,0.,-0.965925826289068));
#1082=DIRECTION('',(0.258819045102521,0.,0.965925826289068));
#1083=DIRECTION('',(0.965925826289068,0.,-0.258819045102521));
#1084=DIRECTION('',(0.965925826289068,0.,-0.258819045102521));
#1085=DIRECTION('',(0.,1.,0.));
#1086=DIRECTION('',(0.965925826289068,0.,-0.258819045102521));
#1087=DIRECTION('',(0.,1.,0.));
#1088=DIRECTION('',(0.,0.,1.));
#1089=DIRECTION('',(0.,-1.,0.));
#1090=DIRECTION('',(0.,0.,-1.));
#1091=DIRECTION('',(0.,1.,0.));
#1092=DIRECTION('',(0.,-1.,0.));
#1093=DIRECTION('',(0.,0.,-1.));
#1094=DIRECTION('',(-0.965925826289069,0.,0.258819045102519));
#1095=DIRECTION('',(0.258819045102519,0.,0.965925826289069));
#1096=DIRECTION('',(0.258819045102519,0.,0.965925826289069));
#1097=DIRECTION('',(0.,1.,0.));
#1098=DIRECTION('',(0.258819045102519,0.,0.965925826289069));
#1099=DIRECTION('',(0.,1.,0.));
#1100=DIRECTION('',(0.,0.,1.));
#1101=DIRECTION('',(0.,-1.,0.));
#1102=DIRECTION('',(0.,0.,-1.));
#1103=DIRECTION('',(0.,1.,0.));
#1104=DIRECTION('',(0.,-1.,0.));
#1105=DIRECTION('',(0.,0.,-1.));
#1106=DIRECTION('',(-0.258819045102522,0.,-0.965925826289068));
#1107=DIRECTION('',(-0.965925826289068,0.,0.258819045102522));
#1108=DIRECTION('',(-0.965925826289068,0.,0.258819045102522));
#1109=DIRECTION('',(0.,1.,0.));
#1110=DIRECTION('',(-0.965925826289068,0.,0.258819045102522));
#1111=DIRECTION('',(0.,1.,0.));
#1112=DIRECTION('',(0.,0.,1.));
#1113=DIRECTION('',(0.,-1.,0.));
#1114=DIRECTION('',(0.,0.,-1.));
#1115=DIRECTION('',(0.,1.,0.));
#1116=DIRECTION('',(0.,-1.,0.));
#1117=DIRECTION('',(0.,0.,-1.));
#1118=DIRECTION('',(-1.,0.,0.));
#1119=DIRECTION('',(0.,0.,1.));
#1120=DIRECTION('',(0.,0.,1.));
#1121=DIRECTION('',(0.,1.,0.));
#1122=DIRECTION('',(0.,0.,1.));
#1123=DIRECTION('',(0.,1.,0.));
#1124=DIRECTION('',(0.,0.,1.));
#1125=DIRECTION('',(0.,-1.,0.));
#1126=DIRECTION('',(0.,0.,-1.));
#1127=DIRECTION('',(0.,1.,0.));
#1128=DIRECTION('',(0.,-1.,0.));
#1129=DIRECTION('',(0.,0.,-1.));
#1130=DIRECTION('',(0.319002590479143,0.,0.947753843182709));
#1131=DIRECTION('',(0.947753843182709,0.,-0.319002590479143));
#1132=DIRECTION('',(0.947753843182709,0.,-0.319002590479143));
#1133=DIRECTION('',(0.,1.,0.));
#1134=DIRECTION('',(0.947753843182709,0.,-0.319002590479143));
#1135=DIRECTION('',(0.,0.,1.));
#1136=DIRECTION('',(1.,0.,0.));
#1137=DIRECTION('',(1.,0.,0.));
#1138=DIRECTION('',(0.,1.,0.));
#1139=DIRECTION('',(1.,0.,0.));
#1140=DIRECTION('',(0.,1.,0.));
#1141=DIRECTION('',(0.,0.,1.));
#1142=DIRECTION('',(0.,-1.,0.));
#1143=DIRECTION('',(0.,0.,-1.));
#1144=DIRECTION('',(0.,1.,0.));
#1145=DIRECTION('',(0.,-1.,0.));
#1146=DIRECTION('',(0.,0.,-1.));
#1147=DIRECTION('',(1.,0.,4.10025548867246E-15));
#1148=DIRECTION('',(4.10025548867246E-15,0.,-1.));
#1149=DIRECTION('',(4.10025548867246E-15,0.,-1.));
#1150=DIRECTION('',(0.,1.,0.));
#1151=DIRECTION('',(4.10025548867246E-15,0.,-1.));
#1152=DIRECTION('',(-0.6,0.,0.8));
#1153=DIRECTION('',(0.8,0.,0.6));
#1154=DIRECTION('',(0.8,0.,0.6));
#1155=DIRECTION('',(0.,1.,0.));
#1156=DIRECTION('',(0.8,0.,0.6));
#1157=DIRECTION('',(0.707106781186548,0.,0.707106781186547));
#1158=DIRECTION('',(0.707106781186547,0.,-0.707106781186548));
#1159=DIRECTION('',(0.707106781186547,0.,-0.707106781186548));
#1160=DIRECTION('',(0.,1.,0.));
#1161=DIRECTION('',(0.707106781186547,0.,-0.707106781186548));
#1162=DIRECTION('',(-0.707106781186546,0.,0.707106781186549));
#1163=DIRECTION('',(0.707106781186549,0.,0.707106781186546));
#1164=DIRECTION('',(0.707106781186549,0.,0.707106781186546));
#1165=DIRECTION('',(0.,1.,0.));
#1166=DIRECTION('',(0.707106781186549,0.,0.707106781186546));
#1167=DIRECTION('',(0.707106781186548,0.,0.707106781186547));
#1168=DIRECTION('',(0.707106781186547,0.,-0.707106781186548));
#1169=DIRECTION('',(0.707106781186547,0.,-0.707106781186548));
#1170=DIRECTION('',(0.,1.,0.));
#1171=DIRECTION('',(0.707106781186547,0.,-0.707106781186548));
#1172=DIRECTION('',(-0.707106781186546,0.,0.707106781186549));
#1173=DIRECTION('',(0.707106781186549,0.,0.707106781186546));
#1174=DIRECTION('',(0.707106781186549,0.,0.707106781186546));
#1175=DIRECTION('',(0.,1.,0.));
#1176=DIRECTION('',(0.707106781186549,0.,0.707106781186546));
#1177=DIRECTION('',(0.707106781186549,0.,0.707106781186546));
#1178=DIRECTION('',(0.707106781186546,0.,-0.707106781186549));
#1179=DIRECTION('',(0.707106781186546,0.,-0.707106781186549));
#1180=DIRECTION('',(0.,1.,0.));
#1181=DIRECTION('',(0.707106781186546,0.,-0.707106781186549));
#1182=DIRECTION('',(-0.707106781186546,0.,0.707106781186549));
#1183=DIRECTION('',(0.707106781186549,0.,0.707106781186546));
#1184=DIRECTION('',(0.707106781186549,0.,0.707106781186546));
#1185=DIRECTION('',(0.,1.,0.));
#1186=DIRECTION('',(0.707106781186549,0.,0.707106781186546));
#1187=DIRECTION('',(0.707106781186548,0.,0.707106781186547));
#1188=DIRECTION('',(0.707106781186547,0.,-0.707106781186548));
#1189=DIRECTION('',(0.707106781186547,0.,-0.707106781186548));
#1190=DIRECTION('',(0.,1.,0.));
#1191=DIRECTION('',(0.707106781186547,0.,-0.707106781186548));
#1192=DIRECTION('',(-0.707106781186547,0.,0.707106781186549));
#1193=DIRECTION('',(0.707106781186549,0.,0.707106781186547));
#1194=DIRECTION('',(0.707106781186549,0.,0.707106781186547));
#1195=DIRECTION('',(0.,1.,0.));
#1196=DIRECTION('',(0.707106781186549,0.,0.707106781186547));
#1197=DIRECTION('',(0.707106781186549,0.,0.707106781186547));
#1198=DIRECTION('',(0.707106781186547,0.,-0.707106781186549));
#1199=DIRECTION('',(0.707106781186547,0.,-0.707106781186549));
#1200=DIRECTION('',(0.707106781186547,0.,-0.707106781186549));
#1201=DIRECTION('',(0.,-1.,0.));
#1202=DIRECTION('',(1.,0.,0.));
#1203=DIRECTION('',(0.,-1.,0.));
#1204=DIRECTION('',(1.,0.,0.));
#1205=CARTESIAN_POINT('',(0.,0.,0.));
#1206=CARTESIAN_POINT('',(0.00375,-0.015,0.0223715957368706));
#1207=CARTESIAN_POINT('',(0.00375,0.,0.0223715957368706));
#1208=CARTESIAN_POINT('',(0.003,0.,0.0216215957368706));
#1209=CARTESIAN_POINT('',(0.0045,0.,0.0231215957368706));
#1210=CARTESIAN_POINT('',(0.003,-0.015,0.0216215957368706));
#1211=CARTESIAN_POINT('',(0.003,-0.015,0.0216215957368706));
#1212=CARTESIAN_POINT('',(0.00375,-0.015,0.0223715957368706));
#1213=CARTESIAN_POINT('',(0.0045,-0.015,0.0231215957368706));
#1214=CARTESIAN_POINT('',(0.0045,-0.015,0.0231215957368706));
#1215=CARTESIAN_POINT('',(0.00225000000000003,-0.015,0.0223715957368706));
#1216=CARTESIAN_POINT('',(0.00225000000000003,0.,0.0223715957368706));
#1217=CARTESIAN_POINT('',(0.00150000000000003,0.,0.0231215957368706));
#1218=CARTESIAN_POINT('',(0.00150000000000003,-0.015,0.0231215957368706));
#1219=CARTESIAN_POINT('',(0.00150000000000003,-0.015,0.0231215957368706));
#1220=CARTESIAN_POINT('',(0.00225000000000003,-0.015,0.0223715957368706));
#1221=CARTESIAN_POINT('',(0.000750000000000032,-0.015,0.0223715957368705));
#1222=CARTESIAN_POINT('',(0.000750000000000032,0.,0.0223715957368705));
#1223=CARTESIAN_POINT('',(3.17671236538253E-17,0.,0.0216215957368705));
#1224=CARTESIAN_POINT('',(3.17671236538253E-17,-0.015,0.0216215957368705));
#1225=CARTESIAN_POINT('',(3.17671236538253E-17,-0.015,0.0216215957368705));
#1226=CARTESIAN_POINT('',(0.000750000000000032,-0.015,0.0223715957368705));
#1227=CARTESIAN_POINT('',(1.1963476870168E-17,-0.015,0.0676215957368706));
#1228=CARTESIAN_POINT('',(1.1963476870168E-17,0.,0.0676215957368706));
#1229=CARTESIAN_POINT('',(3.51341395605121E-18,0.,0.113621595736871));
#1230=CARTESIAN_POINT('',(3.51341395605121E-18,-0.015,0.113621595736871));
#1231=CARTESIAN_POINT('',(3.51341395605121E-18,-0.015,0.113621595736871));
#1232=CARTESIAN_POINT('',(1.1963476870168E-17,-0.015,0.0676215957368706));
#1233=CARTESIAN_POINT('',(0.005,-0.015,0.113621595736871));
#1234=CARTESIAN_POINT('',(0.005,0.,0.113621595736871));
#1235=CARTESIAN_POINT('',(0.005,0.,0.118621595736871));
#1236=CARTESIAN_POINT('',(0.005,-0.015,0.118621595736871));
#1237=CARTESIAN_POINT('',(0.005,-0.015,0.118621595736871));
#1238=CARTESIAN_POINT('',(0.005,-0.015,0.113621595736871));
#1239=CARTESIAN_POINT('',(0.0875,-0.015,0.118621595736871));
#1240=CARTESIAN_POINT('',(0.0875,0.,0.118621595736871));
#1241=CARTESIAN_POINT('',(0.17,0.,0.118621595736871));
#1242=CARTESIAN_POINT('',(0.17,-0.015,0.118621595736871));
#1243=CARTESIAN_POINT('',(0.17,-0.015,0.118621595736871));
#1244=CARTESIAN_POINT('',(0.0875,-0.015,0.118621595736871));
#1245=CARTESIAN_POINT('',(0.17,-0.015,0.108621595736871));
#1246=CARTESIAN_POINT('',(0.17,0.,0.108621595736871));
#1247=CARTESIAN_POINT('',(0.17,0.,0.0986215957368706));
#1248=CARTESIAN_POINT('',(0.17,-0.015,0.0986215957368706));
#1249=CARTESIAN_POINT('',(0.17,-0.015,0.0986215957368706));
#1250=CARTESIAN_POINT('',(0.17,-0.015,0.108621595736871));
#1251=CARTESIAN_POINT('',(0.175,-0.015,0.0986215957368706));
#1252=CARTESIAN_POINT('',(0.175,0.,0.0986215957368706));
#1253=CARTESIAN_POINT('',(0.18,0.,0.0986215957368706));
#1254=CARTESIAN_POINT('',(0.18,-0.015,0.0986215957368706));
#1255=CARTESIAN_POINT('',(0.18,-0.015,0.0986215957368706));
#1256=CARTESIAN_POINT('',(0.175,-0.015,0.0986215957368706));
#1257=CARTESIAN_POINT('',(0.18,-0.015,0.119621595736871));
#1258=CARTESIAN_POINT('',(0.18,0.,0.119621595736871));
#1259=CARTESIAN_POINT('',(0.18,0.,0.120621595736871));
#1260=CARTESIAN_POINT('',(0.18,-0.015,0.120621595736871));
#1261=CARTESIAN_POINT('',(0.18,-0.015,0.120621595736871));
#1262=CARTESIAN_POINT('',(0.18,-0.015,0.119621595736871));
#1263=CARTESIAN_POINT('',(0.17,-0.015,0.120621595736871));
#1264=CARTESIAN_POINT('',(0.17,0.,0.120621595736871));
#1265=CARTESIAN_POINT('',(0.17,0.,0.130621595736871));
#1266=CARTESIAN_POINT('',(0.17,-0.015,0.130621595736871));
#1267=CARTESIAN_POINT('',(0.17,-0.015,0.130621595736871));
#1268=CARTESIAN_POINT('',(0.17,-0.015,0.120621595736871));
#1269=CARTESIAN_POINT('',(0.1075,-0.015,0.130621595736871));
#1270=CARTESIAN_POINT('',(0.1075,0.,0.130621595736871));
#1271=CARTESIAN_POINT('',(0.045,0.,0.130621595736871));
#1272=CARTESIAN_POINT('',(0.045,-0.015,0.130621595736871));
#1273=CARTESIAN_POINT('',(0.045,-0.015,0.130621595736871));
#1274=CARTESIAN_POINT('',(0.1075,-0.015,0.130621595736871));
#1275=CARTESIAN_POINT('',(0.045,-0.015,0.175621595736871));
#1276=CARTESIAN_POINT('',(0.045,0.,0.175621595736871));
#1277=CARTESIAN_POINT('',(5.20474889637626E-18,0.,0.175621595736871));
#1278=CARTESIAN_POINT('',(5.20474889637626E-18,-0.015,0.175621595736871));
#1279=CARTESIAN_POINT('',(5.20474889637626E-18,-0.015,0.175621595736871));
#1280=CARTESIAN_POINT('',(0.045,-0.015,0.175621595736871));
#1281=CARTESIAN_POINT('',(4.39786407728293E-18,-0.015,0.188799024847944));
#1282=CARTESIAN_POINT('',(4.39786407728293E-18,0.,0.188799024847944));
#1283=CARTESIAN_POINT('',(0.,0.,0.201976453959016));
#1284=CARTESIAN_POINT('',(0.,-0.015,0.201976453959016));
#1285=CARTESIAN_POINT('',(0.,-0.015,0.201976453959016));
#1286=CARTESIAN_POINT('',(4.39786407728293E-18,-0.015,0.188799024847944));
#1287=CARTESIAN_POINT('',(0.045,-0.015,0.201976453959016));
#1288=CARTESIAN_POINT('',(0.045,0.,0.201976453959016));
#1289=CARTESIAN_POINT('',(0.0566468570296134,0.,0.245443116142024));
#1290=CARTESIAN_POINT('',(0.0566468570296134,-0.015,0.245443116142024));
#1291=CARTESIAN_POINT('',(0.0566468570296134,-0.015,0.245443116142024));
#1292=CARTESIAN_POINT('',(0.045,-0.015,0.201976453959016));
#1293=CARTESIAN_POINT('',(0.100670112356612,-0.015,0.233647120428966));
#1294=CARTESIAN_POINT('',(0.100670112356612,0.,0.233647120428966));
#1295=CARTESIAN_POINT('',(0.14469336768361,0.,0.221851124715908));
#1296=CARTESIAN_POINT('',(0.14469336768361,-0.015,0.221851124715908));
#1297=CARTESIAN_POINT('',(0.14469336768361,-0.015,0.221851124715908));
#1298=CARTESIAN_POINT('',(0.100670112356612,-0.015,0.233647120428966));
#1299=CARTESIAN_POINT('',(0.14572864386402,-0.015,0.225714828021064));
#1300=CARTESIAN_POINT('',(0.14572864386402,0.,0.225714828021064));
#1301=CARTESIAN_POINT('',(0.149592347169176,0.,0.224679551840654));
#1302=CARTESIAN_POINT('',(0.149592347169176,-0.015,0.224679551840654));
#1303=CARTESIAN_POINT('',(0.149592347169176,-0.015,0.224679551840654));
#1304=CARTESIAN_POINT('',(0.14572864386402,-0.015,0.225714828021064));
#1305=CARTESIAN_POINT('',(0.150450980079726,-0.015,0.227884013487873));
#1306=CARTESIAN_POINT('',(0.150450980079726,0.,0.227884013487873));
#1307=CARTESIAN_POINT('',(0.152336070125582,0.,0.234919265315852));
#1308=CARTESIAN_POINT('',(0.152336070125582,-0.015,0.234919265315852));
#1309=CARTESIAN_POINT('',(0.152336070125582,-0.015,0.234919265315852));
#1310=CARTESIAN_POINT('',(0.150450980079726,-0.015,0.227884013487873));
#1311=CARTESIAN_POINT('',(0.148472366820426,-0.015,0.235954541496262));
#1312=CARTESIAN_POINT('',(0.148472366820426,0.,0.235954541496262));
#1313=CARTESIAN_POINT('',(0.149507643000836,0.,0.239818244801419));
#1314=CARTESIAN_POINT('',(0.149507643000836,-0.015,0.239818244801419));
#1315=CARTESIAN_POINT('',(0.149507643000836,-0.015,0.239818244801419));
#1316=CARTESIAN_POINT('',(0.148472366820426,-0.015,0.235954541496262));
#1317=CARTESIAN_POINT('',(0.139365421824801,-0.015,0.242535844774995));
#1318=CARTESIAN_POINT('',(0.139365421824801,0.,0.242535844774995));
#1319=CARTESIAN_POINT('',(0.129223200648765,0.,0.245253444748571));
#1320=CARTESIAN_POINT('',(0.129223200648765,-0.015,0.245253444748571));
#1321=CARTESIAN_POINT('',(0.129223200648765,-0.015,0.245253444748571));
#1322=CARTESIAN_POINT('',(0.139365421824801,-0.015,0.242535844774995));
#1323=CARTESIAN_POINT('',(0.128192333990907,-0.015,0.241406198005614));
#1324=CARTESIAN_POINT('',(0.128192333990907,0.,0.241406198005614));
#1325=CARTESIAN_POINT('',(0.127161467333048,0.,0.237558951262656));
#1326=CARTESIAN_POINT('',(0.127161467333048,-0.015,0.237558951262656));
#1327=CARTESIAN_POINT('',(0.127161467333048,-0.015,0.237558951262656));
#1328=CARTESIAN_POINT('',(0.128192333990907,-0.015,0.241406198005614));
#1329=CARTESIAN_POINT('',(0.0363644396618753,-0.015,0.261887941502293));
#1330=CARTESIAN_POINT('',(0.0363644396618753,0.,0.261887941502293));
#1331=CARTESIAN_POINT('',(-0.0544325880092971,0.,0.28621693174193));
#1332=CARTESIAN_POINT('',(-0.0544325880092971,-0.015,0.28621693174193));
#1333=CARTESIAN_POINT('',(-0.0544325880092971,-0.015,0.28621693174193));
#1334=CARTESIAN_POINT('',(0.0363644396618753,-0.015,0.261887941502293));
#1335=CARTESIAN_POINT('',(-0.0554678641897073,-0.015,0.282353228436774));
#1336=CARTESIAN_POINT('',(-0.0554678641897073,0.,0.282353228436774));
#1337=CARTESIAN_POINT('',(-0.0593315674948635,0.,0.283388504617184));
#1338=CARTESIAN_POINT('',(-0.0593315674948635,-0.015,0.283388504617184));
#1339=CARTESIAN_POINT('',(-0.0593315674948635,-0.015,0.283388504617184));
#1340=CARTESIAN_POINT('',(-0.0554678641897073,-0.015,0.282353228436774));
#1341=CARTESIAN_POINT('',(-0.059590386539966,-0.015,0.282422578790894));
#1342=CARTESIAN_POINT('',(-0.059590386539966,0.,0.282422578790894));
#1343=CARTESIAN_POINT('',(-0.0598492055850687,0.,0.281456652964605));
#1344=CARTESIAN_POINT('',(-0.0598492055850687,-0.015,0.281456652964605));
#1345=CARTESIAN_POINT('',(-0.0598492055850687,-0.015,0.281456652964605));
#1346=CARTESIAN_POINT('',(-0.059590386539966,-0.015,0.282422578790894));
#1347=CARTESIAN_POINT('',(-0.0559855022799122,-0.015,0.280421376784195));
#1348=CARTESIAN_POINT('',(-0.0559855022799122,0.,0.280421376784195));
#1349=CARTESIAN_POINT('',(-0.0570207784603223,0.,0.276557673479039));
#1350=CARTESIAN_POINT('',(-0.0570207784603223,-0.015,0.276557673479039));
#1351=CARTESIAN_POINT('',(-0.0570207784603223,-0.015,0.276557673479039));
#1352=CARTESIAN_POINT('',(-0.0559855022799122,-0.015,0.280421376784195));
#1353=CARTESIAN_POINT('',(-0.0551869607153545,-0.015,0.276066303495209));
#1354=CARTESIAN_POINT('',(-0.0551869607153545,0.,0.276066303495209));
#1355=CARTESIAN_POINT('',(-0.0533531429703866,0.,0.275574933511379));
#1356=CARTESIAN_POINT('',(-0.0533531429703866,-0.015,0.275574933511379));
#1357=CARTESIAN_POINT('',(-0.0533531429703866,-0.015,0.275574933511379));
#1358=CARTESIAN_POINT('',(-0.0551869607153545,-0.015,0.276066303495209));
#1359=CARTESIAN_POINT('',(-0.065,-0.015,0.232108271328371));
#1360=CARTESIAN_POINT('',(-0.065,0.,0.232108271328371));
#1361=CARTESIAN_POINT('',(-0.02,0.,0.232108271328371));
#1362=CARTESIAN_POINT('',(-0.02,-0.015,0.232108271328371));
#1363=CARTESIAN_POINT('',(-0.02,-0.015,0.232108271328371));
#1364=CARTESIAN_POINT('',(-0.065,-0.015,0.232108271328371));
#1365=CARTESIAN_POINT('',(-0.02,-0.015,0.175364933532621));
#1366=CARTESIAN_POINT('',(-0.02,0.,0.175364933532621));
#1367=CARTESIAN_POINT('',(-0.02,0.,0.0214096408488702));
#1368=CARTESIAN_POINT('',(-0.02,-0.015,0.0214096408488702));
#1369=CARTESIAN_POINT('',(-0.02,-0.015,0.0214096408488702));
#1370=CARTESIAN_POINT('',(-0.02,-0.015,0.175364933532621));
#1371=CARTESIAN_POINT('',(-0.015,-0.015,0.0214096408488702));
#1372=CARTESIAN_POINT('',(-0.015,0.,0.0214096408488702));
#1373=CARTESIAN_POINT('',(-0.0165950129523957,0.,0.0166708716329567));
#1374=CARTESIAN_POINT('',(-0.0165950129523957,-0.015,0.0166708716329567));
#1375=CARTESIAN_POINT('',(-0.0165950129523957,-0.015,0.0166708716329567));
#1376=CARTESIAN_POINT('',(-0.015,-0.015,0.0214096408488702));
#1377=CARTESIAN_POINT('',(-0.00166685854867519,-0.015,0.0116462336849136));
#1378=CARTESIAN_POINT('',(-0.00166685854867519,0.,0.0116462336849136));
#1379=CARTESIAN_POINT('',(0.0132612958550453,0.,0.00662159573687059));
#1380=CARTESIAN_POINT('',(0.0132612958550453,-0.015,0.00662159573687059));
#1381=CARTESIAN_POINT('',(0.0132612958550453,-0.015,0.00662159573687059));
#1382=CARTESIAN_POINT('',(-0.00166685854867519,-0.015,0.0116462336849136));
#1383=CARTESIAN_POINT('',(0.0146306479275227,-0.015,0.00662159573687059));
#1384=CARTESIAN_POINT('',(0.0146306479275227,0.,0.00662159573687059));
#1385=CARTESIAN_POINT('',(0.016,0.,0.00662159573687059));
#1386=CARTESIAN_POINT('',(0.016,-0.015,0.00662159573687059));
#1387=CARTESIAN_POINT('',(0.016,-0.015,0.00662159573687059));
#1388=CARTESIAN_POINT('',(0.0146306479275227,-0.015,0.00662159573687059));
#1389=CARTESIAN_POINT('',(0.016,-0.015,0.0106215957368706));
#1390=CARTESIAN_POINT('',(0.016,0.,0.0106215957368706));
#1391=CARTESIAN_POINT('',(0.02,0.,0.0106215957368706));
#1392=CARTESIAN_POINT('',(0.02,-0.015,0.0106215957368706));
#1393=CARTESIAN_POINT('',(0.02,-0.015,0.0106215957368706));
#1394=CARTESIAN_POINT('',(0.016,-0.015,0.0106215957368706));
#1395=CARTESIAN_POINT('',(0.02,-0.015,0.0161215957368706));
#1396=CARTESIAN_POINT('',(0.02,0.,0.0161215957368706));
#1397=CARTESIAN_POINT('',(0.02,0.,0.0231215957368706));
#1398=CARTESIAN_POINT('',(0.02,-0.015,0.0231215957368706));
#1399=CARTESIAN_POINT('',(0.02,-0.015,0.0231215957368706));
#1400=CARTESIAN_POINT('',(0.02,-0.015,0.0161215957368706));
#1401=CARTESIAN_POINT('',(0.019,-0.015,0.0223715957368705));
#1402=CARTESIAN_POINT('',(0.019,0.,0.0223715957368705));
#1403=CARTESIAN_POINT('',(0.018,0.,0.0216215957368706));
#1404=CARTESIAN_POINT('',(0.018,-0.015,0.0216215957368706));
#1405=CARTESIAN_POINT('',(0.018,-0.015,0.0216215957368706));
#1406=CARTESIAN_POINT('',(0.019,-0.015,0.0223715957368705));
#1407=CARTESIAN_POINT('',(0.01725,-0.015,0.0223715957368706));
#1408=CARTESIAN_POINT('',(0.01725,0.,0.0223715957368706));
#1409=CARTESIAN_POINT('',(0.0165,0.,0.0231215957368706));
#1410=CARTESIAN_POINT('',(0.0165,-0.015,0.0231215957368706));
#1411=CARTESIAN_POINT('',(0.0165,-0.015,0.0231215957368706));
#1412=CARTESIAN_POINT('',(0.01725,-0.015,0.0223715957368706));
#1413=CARTESIAN_POINT('',(0.01575,-0.015,0.0223715957368706));
#1414=CARTESIAN_POINT('',(0.01575,0.,0.0223715957368706));
#1415=CARTESIAN_POINT('',(0.0149999999999998,0.,0.0216215957368706));
#1416=CARTESIAN_POINT('',(0.0149999999999998,-0.015,0.0216215957368706));
#1417=CARTESIAN_POINT('',(0.0149999999999998,-0.015,0.0216215957368706));
#1418=CARTESIAN_POINT('',(0.01575,-0.015,0.0223715957368706));
#1419=CARTESIAN_POINT('',(0.01425,-0.015,0.0223715957368705));
#1420=CARTESIAN_POINT('',(0.01425,0.,0.0223715957368705));
#1421=CARTESIAN_POINT('',(0.0135,0.,0.0231215957368705));
#1422=CARTESIAN_POINT('',(0.0135,-0.015,0.0231215957368705));
#1423=CARTESIAN_POINT('',(0.0135,-0.015,0.0231215957368705));
#1424=CARTESIAN_POINT('',(0.01425,-0.015,0.0223715957368705));
#1425=CARTESIAN_POINT('',(0.01275,-0.015,0.0223715957368706));
#1426=CARTESIAN_POINT('',(0.01275,0.,0.0223715957368706));
#1427=CARTESIAN_POINT('',(0.012,0.,0.0216215957368706));
#1428=CARTESIAN_POINT('',(0.012,-0.015,0.0216215957368706));
#1429=CARTESIAN_POINT('',(0.012,-0.015,0.0216215957368706));
#1430=CARTESIAN_POINT('',(0.01275,-0.015,0.0223715957368706));
#1431=CARTESIAN_POINT('',(0.01125,-0.015,0.0223715957368706));
#1432=CARTESIAN_POINT('',(0.01125,0.,0.0223715957368706));
#1433=CARTESIAN_POINT('',(0.0105,0.,0.0231215957368706));
#1434=CARTESIAN_POINT('',(0.0105,-0.015,0.0231215957368706));
#1435=CARTESIAN_POINT('',(0.0105,-0.015,0.0231215957368706));
#1436=CARTESIAN_POINT('',(0.01125,-0.015,0.0223715957368706));
#1437=CARTESIAN_POINT('',(0.00975,-0.015,0.0223715957368706));
#1438=CARTESIAN_POINT('',(0.00975,0.,0.0223715957368706));
#1439=CARTESIAN_POINT('',(0.009,0.,0.0216215957368706));
#1440=CARTESIAN_POINT('',(0.009,-0.015,0.0216215957368706));
#1441=CARTESIAN_POINT('',(0.009,-0.015,0.0216215957368706));
#1442=CARTESIAN_POINT('',(0.00975,-0.015,0.0223715957368706));
#1443=CARTESIAN_POINT('',(0.00825,-0.015,0.0223715957368706));
#1444=CARTESIAN_POINT('',(0.00825,0.,0.0223715957368706));
#1445=CARTESIAN_POINT('',(0.0075,0.,0.0231215957368706));
#1446=CARTESIAN_POINT('',(0.0075,-0.015,0.0231215957368706));
#1447=CARTESIAN_POINT('',(0.0075,-0.015,0.0231215957368706));
#1448=CARTESIAN_POINT('',(0.00825,-0.015,0.0223715957368706));
#1449=CARTESIAN_POINT('',(0.00675,-0.015,0.0223715957368706));
#1450=CARTESIAN_POINT('',(0.00675,0.,0.0223715957368706));
#1451=CARTESIAN_POINT('',(0.006,0.,0.0216215957368706));
#1452=CARTESIAN_POINT('',(0.006,-0.015,0.0216215957368706));
#1453=CARTESIAN_POINT('',(0.006,-0.015,0.0216215957368706));
#1454=CARTESIAN_POINT('',(0.00675,-0.015,0.0223715957368706));
#1455=CARTESIAN_POINT('',(0.00525,-0.015,0.0223715957368706));
#1456=CARTESIAN_POINT('',(0.00525,0.,0.0223715957368706));
#1457=CARTESIAN_POINT('',(0.00525,-0.015,0.0223715957368706));
#1458=CARTESIAN_POINT('',(0.0600072488600438,-0.015,0.155416606126492));
#1459=CARTESIAN_POINT('',(0.0600072488600438,0.,0.155416606126492));
#1460=MECHANICAL_DESIGN_GEOMETRIC_PRESENTATION_REPRESENTATION('',(#889),
#1461);
#1461=(
GEOMETRIC_REPRESENTATION_CONTEXT(3)
GLOBAL_UNCERTAINTY_ASSIGNED_CONTEXT((#1462))
GLOBAL_UNIT_ASSIGNED_CONTEXT((#1465,#1464,#1463))
REPRESENTATION_CONTEXT('Part 1','TOP_LEVEL_ASSEMBLY_PART')
);
#1462=UNCERTAINTY_MEASURE_WITH_UNIT(LENGTH_MEASURE(1.E-8),#1465,
'DISTANCE_ACCURACY_VALUE','Maximum Tolerance applied to model');
#1463=(
NAMED_UNIT(*)
SI_UNIT($,.STERADIAN.)
SOLID_ANGLE_UNIT()
);
#1464=(
NAMED_UNIT(*)
PLANE_ANGLE_UNIT()
SI_UNIT($,.RADIAN.)
);
#1465=(
LENGTH_UNIT()
NAMED_UNIT(*)
SI_UNIT($,.METRE.)
);
#1466=PRODUCT_DEFINITION_SHAPE('','',#1467);
#1467=PRODUCT_DEFINITION('','',#1469,#1468);
#1468=PRODUCT_DEFINITION_CONTEXT('',#1475,'design');
#1469=PRODUCT_DEFINITION_FORMATION_WITH_SPECIFIED_SOURCE('','',#1471,
 .NOT_KNOWN.);
#1470=PRODUCT_RELATED_PRODUCT_CATEGORY('','',(#1471));
#1471=PRODUCT('Part 1','Part 1','Part 1',(#1473));
#1472=PRODUCT_CATEGORY('','');
#1473=PRODUCT_CONTEXT('',#1475,'mechanical');
#1474=APPLICATION_PROTOCOL_DEFINITION('international standard',
'automotive_design',2010,#1475);
#1475=APPLICATION_CONTEXT(
'core data for automotive mechanical design processes');
ENDSEC;
END-ISO-10303-21;
